<svg xmlns="http://www.w3.org/2000/svg" viewBox="-20 -20 640 640"><rect x="-10" y="-10" rx="6" ry="6" height="620" width="620" fill="var(--gaffney-calendar-background, #fff)"></rect><g><text x="300" y="21.428571428571427" font-family="Roboto" font-size="30" text-anchor="middle" alignment-baseline="middle" fill="var(--gaffney-calendar-text, #000)">January 2018</text></g><svg x="0" y="42.857142857142854"><g><text x="42.857142857142854" y="21.428571428571427" font-family="Roboto" font-size="21.428571428571427" text-anchor="middle" alignment-baseline="middle" fill="var(--gaffney-calendar-text, #000)">Sun</text></g></svg><svg x="85.71428571428571" y="42.857142857142854"><g><text x="42.857142857142854" y="21.428571428571427" font-family="Roboto" font-size="21.428571428571427" text-anchor="middle" alignment-baseline="middle" fill="var(--gaffney-calendar-text, #000)">Mon</text></g></svg><svg x="171.42857142857142" y="42.857142857142854"><g><text x="42.857142857142854" y="21.428571428571427" font-family="Roboto" font-size="21.428571428571427" text-anchor="middle" alignment-baseline="middle" fill="var(--gaffney-calendar-text, #000)">Tue</text></g></svg><svg x="257.1428571428571" y="42.857142857142854"><g><text x="42.857142857142854" y="21.428571428571427" font-family="Roboto" font-size="21.428571428571427" text-anchor="middle" alignment-baseline="middle" fill="var(--gaffney-calendar-text, #000)">Wed</text></g></svg><svg x="342.85714285714283" y="42.857142857142854"><g><text x="42.857142857142854" y="21.428571428571427" font-family="Roboto" font-size="21.428571428571427" text-anchor="middle" alignment-baseline="middle" fill="var(--gaffney-calendar-text, #000)">Thu</text></g></svg><svg x="428.57142857142856" y="42.857142857142854"><g><text x="42.857142857142854" y="21.428571428571427" font-family="Roboto" font-size="21.428571428571427" text-anchor="middle" alignment-baseline="middle" fill="var(--gaffney-calendar-text, #000)">Fri</text></g></svg><svg x="514.2857142857142" y="42.857142857142854"><g><text x="42.857142857142854" y="21.428571428571427" font-family="Roboto" font-size="21.428571428571427" text-anchor="middle" alignment-baseline="middle" fill="var(--gaffney-calendar-text, #000)">Sat</text></g></svg><svg x="0" y="85.71428571428571"></svg><svg x="85.71428571428571" y="85.71428571428571"><g><text x="42.857142857142854" y="27.428571428571427" font-family="Roboto" font-size="14.285714285714286" text-anchor="middle" alignment-baseline="middle" fill="var(--gaffney-calendar-text, #000)">1</text></g><svg x="12" y="43.71428571428571"><svg width="30" height="30"><g><svg xmlns="http://www.w3.org/2000/svg" viewBox="-10 -10 85 85" fill="var(--gaffney-svg-zodiac, #000)"><path d="M41.095 26.517L37.11 14.561l-16 12-4-12L0 27.394l1.2 1.6 14.89-11.167 4 12 16-12 4.015 12.044 15.268-12.215 7.395 11.093 1.664-1.11-8.605-12.907zm0 20L37.11 34.561l-16 12-4-12L0 47.394l1.2 1.6 14.89-11.167 4 12 16-12 4.015 12.044 15.268-12.215 7.395 11.093 1.664-1.11-8.605-12.907z"></path></svg></g></svg></svg><svg x="43.71428571428571" y="43.71428571428571"><circle cx="15" cy="15" r="15" fill="var(--gaffney-svg-moon-fill-1, #555)"></circle><path d="M 15 0 A 7.5 7.5 0 1 0 15 30 7.5 7.5 0 1 0 15 0" fill="var(--gaffney-svg-moon-fill-2, #ddd)"></path></svg></svg><svg x="171.42857142857142" y="85.71428571428571"><g><text x="42.857142857142854" y="27.428571428571427" font-family="Roboto" font-size="14.285714285714286" text-anchor="middle" alignment-baseline="middle" fill="var(--gaffney-calendar-text, #000)">2</text></g><svg x="12" y="43.71428571428571"><svg width="30" height="30"><g><svg xmlns="http://www.w3.org/2000/svg" viewBox="-10 -10 85 85" fill="var(--gaffney-svg-zodiac, #000)"><path d="M41.095 26.517L37.11 14.561l-16 12-4-12L0 27.394l1.2 1.6 14.89-11.167 4 12 16-12 4.015 12.044 15.268-12.215 7.395 11.093 1.664-1.11-8.605-12.907zm0 20L37.11 34.561l-16 12-4-12L0 47.394l1.2 1.6 14.89-11.167 4 12 16-12 4.015 12.044 15.268-12.215 7.395 11.093 1.664-1.11-8.605-12.907z"></path></svg></g></svg></svg><svg x="43.71428571428571" y="43.71428571428571"><circle cx="15" cy="15" r="15" fill="var(--gaffney-svg-moon-fill-1, #555)"></circle><path d="M 15 0 A 6.5 7.5 0 1 0 15 30 7.5 7.5 0 1 0 15 0" fill="var(--gaffney-svg-moon-fill-2, #ddd)"></path></svg></svg><svg x="257.1428571428571" y="85.71428571428571"><g><text x="42.857142857142854" y="27.428571428571427" font-family="Roboto" font-size="14.285714285714286" text-anchor="middle" alignment-baseline="middle" fill="var(--gaffney-calendar-text, #000)">3</text></g><svg x="12" y="43.71428571428571"><svg width="30" height="30"><g><svg xmlns="http://www.w3.org/2000/svg" viewBox="-10 -10 85 85" fill="var(--gaffney-svg-zodiac, #000)"><path d="M41.095 26.517L37.11 14.561l-16 12-4-12L0 27.394l1.2 1.6 14.89-11.167 4 12 16-12 4.015 12.044 15.268-12.215 7.395 11.093 1.664-1.11-8.605-12.907zm0 20L37.11 34.561l-16 12-4-12L0 47.394l1.2 1.6 14.89-11.167 4 12 16-12 4.015 12.044 15.268-12.215 7.395 11.093 1.664-1.11-8.605-12.907z"></path></svg></g></svg></svg><svg x="43.71428571428571" y="43.71428571428571"><circle cx="15" cy="15" r="15" fill="var(--gaffney-svg-moon-fill-1, #555)"></circle><path d="M 15 0 A 5.5 7.5 0 1 0 15 30 7.5 7.5 0 1 0 15 0" fill="var(--gaffney-svg-moon-fill-2, #ddd)"></path></svg></svg><svg x="342.85714285714283" y="85.71428571428571"><g><text x="42.857142857142854" y="27.428571428571427" font-family="Roboto" font-size="14.285714285714286" text-anchor="middle" alignment-baseline="middle" fill="var(--gaffney-calendar-text, #000)">4</text></g><svg x="12" y="43.71428571428571"><svg width="30" height="30"><g><svg xmlns="http://www.w3.org/2000/svg" viewBox="-10 -10 85 85" fill="var(--gaffney-svg-zodiac, #000)"><path d="M41.095 26.517L37.11 14.561l-16 12-4-12L0 27.394l1.2 1.6 14.89-11.167 4 12 16-12 4.015 12.044 15.268-12.215 7.395 11.093 1.664-1.11-8.605-12.907zm0 20L37.11 34.561l-16 12-4-12L0 47.394l1.2 1.6 14.89-11.167 4 12 16-12 4.015 12.044 15.268-12.215 7.395 11.093 1.664-1.11-8.605-12.907z"></path></svg></g></svg></svg><svg x="43.71428571428571" y="43.71428571428571"><circle cx="15" cy="15" r="15" fill="var(--gaffney-svg-moon-fill-1, #555)"></circle><path d="M 15 0 A 4.5 7.5 0 1 0 15 30 7.5 7.5 0 1 0 15 0" fill="var(--gaffney-svg-moon-fill-2, #ddd)"></path></svg></svg><svg x="428.57142857142856" y="85.71428571428571"><g><text x="42.857142857142854" y="27.428571428571427" font-family="Roboto" font-size="14.285714285714286" text-anchor="middle" alignment-baseline="middle" fill="var(--gaffney-calendar-text, #000)">5</text></g><svg x="12" y="43.71428571428571"><svg width="30" height="30"><g><svg xmlns="http://www.w3.org/2000/svg" viewBox="-10 -10 85 85" fill="var(--gaffney-svg-zodiac, #000)"><path d="M41.095 26.517L37.11 14.561l-16 12-4-12L0 27.394l1.2 1.6 14.89-11.167 4 12 16-12 4.015 12.044 15.268-12.215 7.395 11.093 1.664-1.11-8.605-12.907zm0 20L37.11 34.561l-16 12-4-12L0 47.394l1.2 1.6 14.89-11.167 4 12 16-12 4.015 12.044 15.268-12.215 7.395 11.093 1.664-1.11-8.605-12.907z"></path></svg></g></svg></svg><svg x="43.71428571428571" y="43.71428571428571"><circle cx="15" cy="15" r="15" fill="var(--gaffney-svg-moon-fill-1, #555)"></circle><path d="M 15 0 A 3.5 7.5 0 1 0 15 30 7.5 7.5 0 1 0 15 0" fill="var(--gaffney-svg-moon-fill-2, #ddd)"></path></svg></svg><svg x="514.2857142857142" y="85.71428571428571"><g><text x="42.857142857142854" y="27.428571428571427" font-family="Roboto" font-size="14.285714285714286" text-anchor="middle" alignment-baseline="middle" fill="var(--gaffney-calendar-text, #000)">6</text></g><svg x="12" y="43.71428571428571"><svg width="30" height="30"><g><svg xmlns="http://www.w3.org/2000/svg" viewBox="-10 -10 85 85" fill="var(--gaffney-svg-zodiac, #000)"><path d="M41.095 26.517L37.11 14.561l-16 12-4-12L0 27.394l1.2 1.6 14.89-11.167 4 12 16-12 4.015 12.044 15.268-12.215 7.395 11.093 1.664-1.11-8.605-12.907zm0 20L37.11 34.561l-16 12-4-12L0 47.394l1.2 1.6 14.89-11.167 4 12 16-12 4.015 12.044 15.268-12.215 7.395 11.093 1.664-1.11-8.605-12.907z"></path></svg></g></svg></svg><svg x="43.71428571428571" y="43.71428571428571"><circle cx="15" cy="15" r="15" fill="var(--gaffney-svg-moon-fill-1, #555)"></circle><path d="M 15 0 A 2.5 7.5 0 1 0 15 30 7.5 7.5 0 1 0 15 0" fill="var(--gaffney-svg-moon-fill-2, #ddd)"></path></svg></svg><svg x="0" y="171.42857142857142"><g><text x="42.857142857142854" y="27.428571428571427" font-family="Roboto" font-size="14.285714285714286" text-anchor="middle" alignment-baseline="middle" fill="var(--gaffney-calendar-text, #000)">7</text></g><svg x="12" y="43.71428571428571"><svg width="30" height="30"><g><svg xmlns="http://www.w3.org/2000/svg" viewBox="-10 -10 85 85" fill="var(--gaffney-svg-zodiac, #000)"><path d="M41.095 26.517L37.11 14.561l-16 12-4-12L0 27.394l1.2 1.6 14.89-11.167 4 12 16-12 4.015 12.044 15.268-12.215 7.395 11.093 1.664-1.11-8.605-12.907zm0 20L37.11 34.561l-16 12-4-12L0 47.394l1.2 1.6 14.89-11.167 4 12 16-12 4.015 12.044 15.268-12.215 7.395 11.093 1.664-1.11-8.605-12.907z"></path></svg></g></svg></svg><svg x="43.71428571428571" y="43.71428571428571"><circle cx="15" cy="15" r="15" fill="var(--gaffney-svg-moon-fill-1, #555)"></circle><path d="M 15 0 A 1.5 7.5 0 1 0 15 30 7.5 7.5 0 1 0 15 0" fill="var(--gaffney-svg-moon-fill-2, #ddd)"></path></svg></svg><svg x="85.71428571428571" y="171.42857142857142"><g><text x="42.857142857142854" y="27.428571428571427" font-family="Roboto" font-size="14.285714285714286" text-anchor="middle" alignment-baseline="middle" fill="var(--gaffney-calendar-text, #000)">8</text></g><svg x="12" y="43.71428571428571"><svg width="30" height="30"><g><svg xmlns="http://www.w3.org/2000/svg" viewBox="-10 -10 85 85" fill="var(--gaffney-svg-zodiac, #000)"><path d="M41.095 26.517L37.11 14.561l-16 12-4-12L0 27.394l1.2 1.6 14.89-11.167 4 12 16-12 4.015 12.044 15.268-12.215 7.395 11.093 1.664-1.11-8.605-12.907zm0 20L37.11 34.561l-16 12-4-12L0 47.394l1.2 1.6 14.89-11.167 4 12 16-12 4.015 12.044 15.268-12.215 7.395 11.093 1.664-1.11-8.605-12.907z"></path></svg></g></svg></svg><svg x="43.71428571428571" y="43.71428571428571"><circle cx="15" cy="15" r="15" fill="var(--gaffney-svg-moon-fill-1, #555)"></circle><path d="M 15 0 A 0.5 7.5 0 1 0 15 30 7.5 7.5 0 1 0 15 0" fill="var(--gaffney-svg-moon-fill-2, #ddd)"></path></svg></svg><svg x="171.42857142857142" y="171.42857142857142"><g><text x="42.857142857142854" y="27.428571428571427" font-family="Roboto" font-size="14.285714285714286" text-anchor="middle" alignment-baseline="middle" fill="var(--gaffney-calendar-text, #000)">9</text></g><svg x="12" y="43.71428571428571"><svg width="30" height="30"><g><svg xmlns="http://www.w3.org/2000/svg" viewBox="-10 -10 85 85" fill="var(--gaffney-svg-zodiac, #000)"><path d="M41.095 26.517L37.11 14.561l-16 12-4-12L0 27.394l1.2 1.6 14.89-11.167 4 12 16-12 4.015 12.044 15.268-12.215 7.395 11.093 1.664-1.11-8.605-12.907zm0 20L37.11 34.561l-16 12-4-12L0 47.394l1.2 1.6 14.89-11.167 4 12 16-12 4.015 12.044 15.268-12.215 7.395 11.093 1.664-1.11-8.605-12.907z"></path></svg></g></svg></svg><svg x="43.71428571428571" y="43.71428571428571"><circle cx="15" cy="15" r="15" fill="var(--gaffney-svg-moon-fill-1, #555)"></circle><path d="M 15 0 A -0.5 7.5 0 1 1 15 30 7.5 7.5 0 1 0 15 0" fill="var(--gaffney-svg-moon-fill-2, #ddd)"></path></svg></svg><svg x="257.1428571428571" y="171.42857142857142"><g><text x="42.857142857142854" y="27.428571428571427" font-family="Roboto" font-size="14.285714285714286" text-anchor="middle" alignment-baseline="middle" fill="var(--gaffney-calendar-text, #000)">10</text></g><svg x="12" y="43.71428571428571"><svg width="30" height="30"><g><svg xmlns="http://www.w3.org/2000/svg" viewBox="-10 -10 85 85" fill="var(--gaffney-svg-zodiac, #000)"><path d="M41.095 26.517L37.11 14.561l-16 12-4-12L0 27.394l1.2 1.6 14.89-11.167 4 12 16-12 4.015 12.044 15.268-12.215 7.395 11.093 1.664-1.11-8.605-12.907zm0 20L37.11 34.561l-16 12-4-12L0 47.394l1.2 1.6 14.89-11.167 4 12 16-12 4.015 12.044 15.268-12.215 7.395 11.093 1.664-1.11-8.605-12.907z"></path></svg></g></svg></svg><svg x="43.71428571428571" y="43.71428571428571"><circle cx="15" cy="15" r="15" fill="var(--gaffney-svg-moon-fill-1, #555)"></circle><path d="M 15 0 A -1.5 7.5 0 1 1 15 30 7.5 7.5 0 1 0 15 0" fill="var(--gaffney-svg-moon-fill-2, #ddd)"></path></svg></svg><svg x="342.85714285714283" y="171.42857142857142"><g><text x="42.857142857142854" y="27.428571428571427" font-family="Roboto" font-size="14.285714285714286" text-anchor="middle" alignment-baseline="middle" fill="var(--gaffney-calendar-text, #000)">11</text></g><svg x="12" y="43.71428571428571"><svg width="30" height="30"><g><svg xmlns="http://www.w3.org/2000/svg" viewBox="-10 -10 85 85" fill="var(--gaffney-svg-zodiac, #000)"><path d="M41.095 26.517L37.11 14.561l-16 12-4-12L0 27.394l1.2 1.6 14.89-11.167 4 12 16-12 4.015 12.044 15.268-12.215 7.395 11.093 1.664-1.11-8.605-12.907zm0 20L37.11 34.561l-16 12-4-12L0 47.394l1.2 1.6 14.89-11.167 4 12 16-12 4.015 12.044 15.268-12.215 7.395 11.093 1.664-1.11-8.605-12.907z"></path></svg></g></svg></svg><svg x="43.71428571428571" y="43.71428571428571"><circle cx="15" cy="15" r="15" fill="var(--gaffney-svg-moon-fill-1, #555)"></circle><path d="M 15 0 A -2.5 7.5 0 1 1 15 30 7.5 7.5 0 1 0 15 0" fill="var(--gaffney-svg-moon-fill-2, #ddd)"></path></svg></svg><svg x="428.57142857142856" y="171.42857142857142"><g><text x="42.857142857142854" y="27.428571428571427" font-family="Roboto" font-size="14.285714285714286" text-anchor="middle" alignment-baseline="middle" fill="var(--gaffney-calendar-text, #000)">12</text></g><svg x="12" y="43.71428571428571"><svg width="30" height="30"><g><svg xmlns="http://www.w3.org/2000/svg" viewBox="-10 -10 85 85" fill="var(--gaffney-svg-zodiac, #000)"><path d="M41.095 26.517L37.11 14.561l-16 12-4-12L0 27.394l1.2 1.6 14.89-11.167 4 12 16-12 4.015 12.044 15.268-12.215 7.395 11.093 1.664-1.11-8.605-12.907zm0 20L37.11 34.561l-16 12-4-12L0 47.394l1.2 1.6 14.89-11.167 4 12 16-12 4.015 12.044 15.268-12.215 7.395 11.093 1.664-1.11-8.605-12.907z"></path></svg></g></svg></svg><svg x="43.71428571428571" y="43.71428571428571"><circle cx="15" cy="15" r="15" fill="var(--gaffney-svg-moon-fill-1, #555)"></circle><path d="M 15 0 A -3.5 7.5 0 1 1 15 30 7.5 7.5 0 1 0 15 0" fill="var(--gaffney-svg-moon-fill-2, #ddd)"></path></svg></svg><svg x="514.2857142857142" y="171.42857142857142"><g><text x="42.857142857142854" y="27.428571428571427" font-family="Roboto" font-size="14.285714285714286" text-anchor="middle" alignment-baseline="middle" fill="var(--gaffney-calendar-text, #000)">13</text></g><svg x="12" y="43.71428571428571"><svg width="30" height="30"><g><svg xmlns="http://www.w3.org/2000/svg" viewBox="-10 -10 85 85" fill="var(--gaffney-svg-zodiac, #000)"><path d="M41.095 26.517L37.11 14.561l-16 12-4-12L0 27.394l1.2 1.6 14.89-11.167 4 12 16-12 4.015 12.044 15.268-12.215 7.395 11.093 1.664-1.11-8.605-12.907zm0 20L37.11 34.561l-16 12-4-12L0 47.394l1.2 1.6 14.89-11.167 4 12 16-12 4.015 12.044 15.268-12.215 7.395 11.093 1.664-1.11-8.605-12.907z"></path></svg></g></svg></svg><svg x="43.71428571428571" y="43.71428571428571"><circle cx="15" cy="15" r="15" fill="var(--gaffney-svg-moon-fill-1, #555)"></circle><path d="M 15 0 A -4.5 7.5 0 1 1 15 30 7.5 7.5 0 1 0 15 0" fill="var(--gaffney-svg-moon-fill-2, #ddd)"></path></svg></svg><svg x="0" y="257.1428571428571"><g><text x="42.857142857142854" y="27.428571428571427" font-family="Roboto" font-size="14.285714285714286" text-anchor="middle" alignment-baseline="middle" fill="var(--gaffney-calendar-text, #000)">14</text></g><svg x="12" y="43.71428571428571"><svg width="30" height="30"><g><svg xmlns="http://www.w3.org/2000/svg" viewBox="-10 -10 85 85" fill="var(--gaffney-svg-zodiac, #000)"><path d="M41.095 26.517L37.11 14.561l-16 12-4-12L0 27.394l1.2 1.6 14.89-11.167 4 12 16-12 4.015 12.044 15.268-12.215 7.395 11.093 1.664-1.11-8.605-12.907zm0 20L37.11 34.561l-16 12-4-12L0 47.394l1.2 1.6 14.89-11.167 4 12 16-12 4.015 12.044 15.268-12.215 7.395 11.093 1.664-1.11-8.605-12.907z"></path></svg></g></svg></svg><svg x="43.71428571428571" y="43.71428571428571"><circle cx="15" cy="15" r="15" fill="var(--gaffney-svg-moon-fill-1, #555)"></circle><path d="M 15 0 A -5.5 7.5 0 1 1 15 30 7.5 7.5 0 1 0 15 0" fill="var(--gaffney-svg-moon-fill-2, #ddd)"></path></svg></svg><svg x="85.71428571428571" y="257.1428571428571"><g><text x="42.857142857142854" y="27.428571428571427" font-family="Roboto" font-size="14.285714285714286" text-anchor="middle" alignment-baseline="middle" fill="var(--gaffney-calendar-text, #000)">15</text></g><svg x="12" y="43.71428571428571"><svg width="30" height="30"><g><svg xmlns="http://www.w3.org/2000/svg" viewBox="-10 -10 85 85" fill="var(--gaffney-svg-zodiac, #000)"><path d="M41.095 26.517L37.11 14.561l-16 12-4-12L0 27.394l1.2 1.6 14.89-11.167 4 12 16-12 4.015 12.044 15.268-12.215 7.395 11.093 1.664-1.11-8.605-12.907zm0 20L37.11 34.561l-16 12-4-12L0 47.394l1.2 1.6 14.89-11.167 4 12 16-12 4.015 12.044 15.268-12.215 7.395 11.093 1.664-1.11-8.605-12.907z"></path></svg></g></svg></svg><svg x="43.71428571428571" y="43.71428571428571"><circle cx="15" cy="15" r="15" fill="var(--gaffney-svg-moon-fill-1, #555)"></circle><path d="M 15 0 A -6.5 7.5 0 1 1 15 30 7.5 7.5 0 1 0 15 0" fill="var(--gaffney-svg-moon-fill-2, #ddd)"></path></svg></svg><svg x="171.42857142857142" y="257.1428571428571"><g><text x="42.857142857142854" y="27.428571428571427" font-family="Roboto" font-size="14.285714285714286" text-anchor="middle" alignment-baseline="middle" fill="var(--gaffney-calendar-text, #000)">16</text></g><svg x="12" y="43.71428571428571"><svg width="30" height="30"><g><svg xmlns="http://www.w3.org/2000/svg" viewBox="-10 -10 85 85" fill="var(--gaffney-svg-zodiac, #000)"><path d="M41.095 26.517L37.11 14.561l-16 12-4-12L0 27.394l1.2 1.6 14.89-11.167 4 12 16-12 4.015 12.044 15.268-12.215 7.395 11.093 1.664-1.11-8.605-12.907zm0 20L37.11 34.561l-16 12-4-12L0 47.394l1.2 1.6 14.89-11.167 4 12 16-12 4.015 12.044 15.268-12.215 7.395 11.093 1.664-1.11-8.605-12.907z"></path></svg></g></svg></svg><svg x="43.71428571428571" y="43.71428571428571"><circle cx="15" cy="15" r="15" fill="var(--gaffney-svg-moon-fill-1, #555)"></circle><path d="M 15 0 A -7.5 7.5 0 1 0 15 30 7.5 7.5 0 1 1 15 0" fill="var(--gaffney-svg-moon-fill-2, #ddd)"></path></svg></svg><svg x="257.1428571428571" y="257.1428571428571"><g><text x="42.857142857142854" y="27.428571428571427" font-family="Roboto" font-size="14.285714285714286" text-anchor="middle" alignment-baseline="middle" fill="var(--gaffney-calendar-text, #000)">17</text></g><svg x="12" y="43.71428571428571"><svg width="30" height="30"><g><svg xmlns="http://www.w3.org/2000/svg" viewBox="-10 -10 85 85" fill="var(--gaffney-svg-zodiac, #000)"><path d="M41.095 26.517L37.11 14.561l-16 12-4-12L0 27.394l1.2 1.6 14.89-11.167 4 12 16-12 4.015 12.044 15.268-12.215 7.395 11.093 1.664-1.11-8.605-12.907zm0 20L37.11 34.561l-16 12-4-12L0 47.394l1.2 1.6 14.89-11.167 4 12 16-12 4.015 12.044 15.268-12.215 7.395 11.093 1.664-1.11-8.605-12.907z"></path></svg></g></svg></svg><svg x="43.71428571428571" y="43.71428571428571"><circle cx="15" cy="15" r="15" fill="var(--gaffney-svg-moon-fill-1, #555)"></circle><path d="M 15 0 A -6.5 7.5 0 1 0 15 30 7.5 7.5 0 1 1 15 0" fill="var(--gaffney-svg-moon-fill-2, #ddd)"></path></svg></svg><svg x="342.85714285714283" y="257.1428571428571"><g><text x="42.857142857142854" y="27.428571428571427" font-family="Roboto" font-size="14.285714285714286" text-anchor="middle" alignment-baseline="middle" fill="var(--gaffney-calendar-text, #000)">18</text></g><svg x="12" y="43.71428571428571"><svg width="30" height="30"><g><svg xmlns="http://www.w3.org/2000/svg" viewBox="-10 -10 85 85" fill="var(--gaffney-svg-zodiac, #000)"><path d="M55.378 1.06L53.682 0c-.406.649-9.746 15.782-10.133 31.53H21.511C21.125 15.782 11.784.649 11.378 0L9.682 1.06c.097.154 9.428 15.267 9.829 30.47H7.53v2h11.981c-.4 15.188-9.732 30.316-9.829 30.47l1.696 1.061c.406-.649 9.746-15.782 10.133-31.53h22.037c.387 15.748 9.728 30.881 10.133 31.53L55.377 64c-.096-.154-9.427-15.267-9.828-30.47H57.53v-2H45.549c.402-15.188 9.732-30.316 9.829-30.47z"></path></svg></g></svg></svg><svg x="43.71428571428571" y="43.71428571428571"><circle cx="15" cy="15" r="15" fill="var(--gaffney-svg-moon-fill-1, #555)"></circle><path d="M 15 0 A -5.5 7.5 0 1 0 15 30 7.5 7.5 0 1 1 15 0" fill="var(--gaffney-svg-moon-fill-2, #ddd)"></path></svg></svg><svg x="428.57142857142856" y="257.1428571428571"><g><text x="42.857142857142854" y="27.428571428571427" font-family="Roboto" font-size="14.285714285714286" text-anchor="middle" alignment-baseline="middle" fill="var(--gaffney-calendar-text, #000)">19</text></g><svg x="12" y="43.71428571428571"><svg width="30" height="30"><g><svg xmlns="http://www.w3.org/2000/svg" viewBox="-10 -10 85 85" fill="var(--gaffney-svg-zodiac, #000)"><path d="M55.378 1.06L53.682 0c-.406.649-9.746 15.782-10.133 31.53H21.511C21.125 15.782 11.784.649 11.378 0L9.682 1.06c.097.154 9.428 15.267 9.829 30.47H7.53v2h11.981c-.4 15.188-9.732 30.316-9.829 30.47l1.696 1.061c.406-.649 9.746-15.782 10.133-31.53h22.037c.387 15.748 9.728 30.881 10.133 31.53L55.377 64c-.096-.154-9.427-15.267-9.828-30.47H57.53v-2H45.549c.402-15.188 9.732-30.316 9.829-30.47z"></path></svg></g></svg></svg><svg x="43.71428571428571" y="43.71428571428571"><circle cx="15" cy="15" r="15" fill="var(--gaffney-svg-moon-fill-1, #555)"></circle><path d="M 15 0 A -4.5 7.5 0 1 0 15 30 7.5 7.5 0 1 1 15 0" fill="var(--gaffney-svg-moon-fill-2, #ddd)"></path></svg></svg><svg x="514.2857142857142" y="257.1428571428571"><g><text x="42.857142857142854" y="27.428571428571427" font-family="Roboto" font-size="14.285714285714286" text-anchor="middle" alignment-baseline="middle" fill="var(--gaffney-calendar-text, #000)">20</text></g><svg x="12" y="43.71428571428571"><svg width="30" height="30"><g><svg xmlns="http://www.w3.org/2000/svg" viewBox="-10 -10 85 85" fill="var(--gaffney-svg-zodiac, #000)"><path d="M55.378 1.06L53.682 0c-.406.649-9.746 15.782-10.133 31.53H21.511C21.125 15.782 11.784.649 11.378 0L9.682 1.06c.097.154 9.428 15.267 9.829 30.47H7.53v2h11.981c-.4 15.188-9.732 30.316-9.829 30.47l1.696 1.061c.406-.649 9.746-15.782 10.133-31.53h22.037c.387 15.748 9.728 30.881 10.133 31.53L55.377 64c-.096-.154-9.427-15.267-9.828-30.47H57.53v-2H45.549c.402-15.188 9.732-30.316 9.829-30.47z"></path></svg></g></svg></svg><svg x="43.71428571428571" y="43.71428571428571"><circle cx="15" cy="15" r="15" fill="var(--gaffney-svg-moon-fill-1, #555)"></circle><path d="M 15 0 A -3.5 7.5 0 1 0 15 30 7.5 7.5 0 1 1 15 0" fill="var(--gaffney-svg-moon-fill-2, #ddd)"></path></svg></svg><svg x="0" y="342.85714285714283"><g><text x="42.857142857142854" y="27.428571428571427" font-family="Roboto" font-size="14.285714285714286" text-anchor="middle" alignment-baseline="middle" fill="var(--gaffney-calendar-text, #000)">21</text></g><svg x="12" y="43.71428571428571"><svg width="30" height="30"><g><svg xmlns="http://www.w3.org/2000/svg" viewBox="-10 -10 85 85" fill="var(--gaffney-svg-zodiac, #000)"><path d="M55.378 1.06L53.682 0c-.406.649-9.746 15.782-10.133 31.53H21.511C21.125 15.782 11.784.649 11.378 0L9.682 1.06c.097.154 9.428 15.267 9.829 30.47H7.53v2h11.981c-.4 15.188-9.732 30.316-9.829 30.47l1.696 1.061c.406-.649 9.746-15.782 10.133-31.53h22.037c.387 15.748 9.728 30.881 10.133 31.53L55.377 64c-.096-.154-9.427-15.267-9.828-30.47H57.53v-2H45.549c.402-15.188 9.732-30.316 9.829-30.47z"></path></svg></g></svg></svg><svg x="43.71428571428571" y="43.71428571428571"><circle cx="15" cy="15" r="15" fill="var(--gaffney-svg-moon-fill-1, #555)"></circle><path d="M 15 0 A -2.5 7.5 0 1 0 15 30 7.5 7.5 0 1 1 15 0" fill="var(--gaffney-svg-moon-fill-2, #ddd)"></path></svg></svg><svg x="85.71428571428571" y="342.85714285714283"><g><text x="42.857142857142854" y="27.428571428571427" font-family="Roboto" font-size="14.285714285714286" text-anchor="middle" alignment-baseline="middle" fill="var(--gaffney-calendar-text, #000)">22</text></g><svg x="12" y="43.71428571428571"><svg width="30" height="30"><g><svg xmlns="http://www.w3.org/2000/svg" viewBox="-10 -10 85 85" fill="var(--gaffney-svg-zodiac, #000)"><path d="M55.378 1.06L53.682 0c-.406.649-9.746 15.782-10.133 31.53H21.511C21.125 15.782 11.784.649 11.378 0L9.682 1.06c.097.154 9.428 15.267 9.829 30.47H7.53v2h11.981c-.4 15.188-9.732 30.316-9.829 30.47l1.696 1.061c.406-.649 9.746-15.782 10.133-31.53h22.037c.387 15.748 9.728 30.881 10.133 31.53L55.377 64c-.096-.154-9.427-15.267-9.828-30.47H57.53v-2H45.549c.402-15.188 9.732-30.316 9.829-30.47z"></path></svg></g></svg></svg><svg x="43.71428571428571" y="43.71428571428571"><circle cx="15" cy="15" r="15" fill="var(--gaffney-svg-moon-fill-1, #555)"></circle><path d="M 15 0 A -1.5 7.5 0 1 0 15 30 7.5 7.5 0 1 1 15 0" fill="var(--gaffney-svg-moon-fill-2, #ddd)"></path></svg></svg><svg x="171.42857142857142" y="342.85714285714283"><g><text x="42.857142857142854" y="27.428571428571427" font-family="Roboto" font-size="14.285714285714286" text-anchor="middle" alignment-baseline="middle" fill="var(--gaffney-calendar-text, #000)">23</text></g><svg x="12" y="43.71428571428571"><svg width="30" height="30"><g><svg xmlns="http://www.w3.org/2000/svg" viewBox="-10 -10 85 85" fill="var(--gaffney-svg-zodiac, #000)"><path d="M55.378 1.06L53.682 0c-.406.649-9.746 15.782-10.133 31.53H21.511C21.125 15.782 11.784.649 11.378 0L9.682 1.06c.097.154 9.428 15.267 9.829 30.47H7.53v2h11.981c-.4 15.188-9.732 30.316-9.829 30.47l1.696 1.061c.406-.649 9.746-15.782 10.133-31.53h22.037c.387 15.748 9.728 30.881 10.133 31.53L55.377 64c-.096-.154-9.427-15.267-9.828-30.47H57.53v-2H45.549c.402-15.188 9.732-30.316 9.829-30.47z"></path></svg></g></svg></svg><svg x="43.71428571428571" y="43.71428571428571"><circle cx="15" cy="15" r="15" fill="var(--gaffney-svg-moon-fill-1, #555)"></circle><path d="M 15 0 A -0.5 7.5 0 1 0 15 30 7.5 7.5 0 1 1 15 0" fill="var(--gaffney-svg-moon-fill-2, #ddd)"></path></svg></svg><svg x="257.1428571428571" y="342.85714285714283"><g><text x="42.857142857142854" y="27.428571428571427" font-family="Roboto" font-size="14.285714285714286" text-anchor="middle" alignment-baseline="middle" fill="var(--gaffney-calendar-text, #000)">24</text></g><svg x="12" y="43.71428571428571"><svg width="30" height="30"><g><svg xmlns="http://www.w3.org/2000/svg" viewBox="-10 -10 85 85" fill="var(--gaffney-svg-zodiac, #000)"><path d="M55.378 1.06L53.682 0c-.406.649-9.746 15.782-10.133 31.53H21.511C21.125 15.782 11.784.649 11.378 0L9.682 1.06c.097.154 9.428 15.267 9.829 30.47H7.53v2h11.981c-.4 15.188-9.732 30.316-9.829 30.47l1.696 1.061c.406-.649 9.746-15.782 10.133-31.53h22.037c.387 15.748 9.728 30.881 10.133 31.53L55.377 64c-.096-.154-9.427-15.267-9.828-30.47H57.53v-2H45.549c.402-15.188 9.732-30.316 9.829-30.47z"></path></svg></g></svg></svg><svg x="43.71428571428571" y="43.71428571428571"><circle cx="15" cy="15" r="15" fill="var(--gaffney-svg-moon-fill-1, #555)"></circle><path d="M 15 0 A 0.5 7.5 0 1 1 15 30 7.5 7.5 0 1 1 15 0" fill="var(--gaffney-svg-moon-fill-2, #ddd)"></path></svg></svg><svg x="342.85714285714283" y="342.85714285714283"><g><text x="42.857142857142854" y="27.428571428571427" font-family="Roboto" font-size="14.285714285714286" text-anchor="middle" alignment-baseline="middle" fill="var(--gaffney-calendar-text, #000)">25</text></g><svg x="12" y="43.71428571428571"><svg width="30" height="30"><g><svg xmlns="http://www.w3.org/2000/svg" viewBox="-10 -10 85 85" fill="var(--gaffney-svg-zodiac, #000)"><path d="M55.378 1.06L53.682 0c-.406.649-9.746 15.782-10.133 31.53H21.511C21.125 15.782 11.784.649 11.378 0L9.682 1.06c.097.154 9.428 15.267 9.829 30.47H7.53v2h11.981c-.4 15.188-9.732 30.316-9.829 30.47l1.696 1.061c.406-.649 9.746-15.782 10.133-31.53h22.037c.387 15.748 9.728 30.881 10.133 31.53L55.377 64c-.096-.154-9.427-15.267-9.828-30.47H57.53v-2H45.549c.402-15.188 9.732-30.316 9.829-30.47z"></path></svg></g></svg></svg><svg x="43.71428571428571" y="43.71428571428571"><circle cx="15" cy="15" r="15" fill="var(--gaffney-svg-moon-fill-1, #555)"></circle><path d="M 15 0 A 1.5 7.5 0 1 1 15 30 7.5 7.5 0 1 1 15 0" fill="var(--gaffney-svg-moon-fill-2, #ddd)"></path></svg></svg><svg x="428.57142857142856" y="342.85714285714283"><g><text x="42.857142857142854" y="27.428571428571427" font-family="Roboto" font-size="14.285714285714286" text-anchor="middle" alignment-baseline="middle" fill="var(--gaffney-calendar-text, #000)">26</text></g><svg x="12" y="43.71428571428571"><svg width="30" height="30"><g><svg xmlns="http://www.w3.org/2000/svg" viewBox="-10 -10 85 85" fill="var(--gaffney-svg-zodiac, #000)"><path d="M55.378 1.06L53.682 0c-.406.649-9.746 15.782-10.133 31.53H21.511C21.125 15.782 11.784.649 11.378 0L9.682 1.06c.097.154 9.428 15.267 9.829 30.47H7.53v2h11.981c-.4 15.188-9.732 30.316-9.829 30.47l1.696 1.061c.406-.649 9.746-15.782 10.133-31.53h22.037c.387 15.748 9.728 30.881 10.133 31.53L55.377 64c-.096-.154-9.427-15.267-9.828-30.47H57.53v-2H45.549c.402-15.188 9.732-30.316 9.829-30.47z"></path></svg></g></svg></svg><svg x="43.71428571428571" y="43.71428571428571"><circle cx="15" cy="15" r="15" fill="var(--gaffney-svg-moon-fill-1, #555)"></circle><path d="M 15 0 A 2.5 7.5 0 1 1 15 30 7.5 7.5 0 1 1 15 0" fill="var(--gaffney-svg-moon-fill-2, #ddd)"></path></svg></svg><svg x="514.2857142857142" y="342.85714285714283"><g><text x="42.857142857142854" y="27.428571428571427" font-family="Roboto" font-size="14.285714285714286" text-anchor="middle" alignment-baseline="middle" fill="var(--gaffney-calendar-text, #000)">27</text></g><svg x="12" y="43.71428571428571"><svg width="30" height="30"><g><svg xmlns="http://www.w3.org/2000/svg" viewBox="-10 -10 85 85" fill="var(--gaffney-svg-zodiac, #000)"><path d="M55.378 1.06L53.682 0c-.406.649-9.746 15.782-10.133 31.53H21.511C21.125 15.782 11.784.649 11.378 0L9.682 1.06c.097.154 9.428 15.267 9.829 30.47H7.53v2h11.981c-.4 15.188-9.732 30.316-9.829 30.47l1.696 1.061c.406-.649 9.746-15.782 10.133-31.53h22.037c.387 15.748 9.728 30.881 10.133 31.53L55.377 64c-.096-.154-9.427-15.267-9.828-30.47H57.53v-2H45.549c.402-15.188 9.732-30.316 9.829-30.47z"></path></svg></g></svg></svg><svg x="43.71428571428571" y="43.71428571428571"><circle cx="15" cy="15" r="15" fill="var(--gaffney-svg-moon-fill-1, #555)"></circle><path d="M 15 0 A 3.5 7.5 0 1 1 15 30 7.5 7.5 0 1 1 15 0" fill="var(--gaffney-svg-moon-fill-2, #ddd)"></path></svg></svg><svg x="0" y="428.57142857142856"><g><text x="42.857142857142854" y="27.428571428571427" font-family="Roboto" font-size="14.285714285714286" text-anchor="middle" alignment-baseline="middle" fill="var(--gaffney-calendar-text, #000)">28</text></g><svg x="12" y="43.71428571428571"><svg width="30" height="30"><g><svg xmlns="http://www.w3.org/2000/svg" viewBox="-10 -10 85 85" fill="var(--gaffney-svg-zodiac, #000)"><path d="M55.378 1.06L53.682 0c-.406.649-9.746 15.782-10.133 31.53H21.511C21.125 15.782 11.784.649 11.378 0L9.682 1.06c.097.154 9.428 15.267 9.829 30.47H7.53v2h11.981c-.4 15.188-9.732 30.316-9.829 30.47l1.696 1.061c.406-.649 9.746-15.782 10.133-31.53h22.037c.387 15.748 9.728 30.881 10.133 31.53L55.377 64c-.096-.154-9.427-15.267-9.828-30.47H57.53v-2H45.549c.402-15.188 9.732-30.316 9.829-30.47z"></path></svg></g></svg></svg><svg x="43.71428571428571" y="43.71428571428571"><circle cx="15" cy="15" r="15" fill="var(--gaffney-svg-moon-fill-1, #555)"></circle><path d="M 15 0 A 4.5 7.5 0 1 1 15 30 7.5 7.5 0 1 1 15 0" fill="var(--gaffney-svg-moon-fill-2, #ddd)"></path></svg></svg><svg x="85.71428571428571" y="428.57142857142856"><g><text x="42.857142857142854" y="27.428571428571427" font-family="Roboto" font-size="14.285714285714286" text-anchor="middle" alignment-baseline="middle" fill="var(--gaffney-calendar-text, #000)">29</text></g><svg x="12" y="43.71428571428571"><svg width="30" height="30"><g><svg xmlns="http://www.w3.org/2000/svg" viewBox="-10 -10 85 85" fill="var(--gaffney-svg-zodiac, #000)"><path d="M55.378 1.06L53.682 0c-.406.649-9.746 15.782-10.133 31.53H21.511C21.125 15.782 11.784.649 11.378 0L9.682 1.06c.097.154 9.428 15.267 9.829 30.47H7.53v2h11.981c-.4 15.188-9.732 30.316-9.829 30.47l1.696 1.061c.406-.649 9.746-15.782 10.133-31.53h22.037c.387 15.748 9.728 30.881 10.133 31.53L55.377 64c-.096-.154-9.427-15.267-9.828-30.47H57.53v-2H45.549c.402-15.188 9.732-30.316 9.829-30.47z"></path></svg></g></svg></svg><svg x="43.71428571428571" y="43.71428571428571"><circle cx="15" cy="15" r="15" fill="var(--gaffney-svg-moon-fill-1, #555)"></circle><path d="M 15 0 A 5.5 7.5 0 1 1 15 30 7.5 7.5 0 1 1 15 0" fill="var(--gaffney-svg-moon-fill-2, #ddd)"></path></svg></svg><svg x="171.42857142857142" y="428.57142857142856"><g><text x="42.857142857142854" y="27.428571428571427" font-family="Roboto" font-size="14.285714285714286" text-anchor="middle" alignment-baseline="middle" fill="var(--gaffney-calendar-text, #000)">30</text></g><svg x="12" y="43.71428571428571"><svg width="30" height="30"><g><svg xmlns="http://www.w3.org/2000/svg" viewBox="-10 -10 85 85" fill="var(--gaffney-svg-zodiac, #000)"><path d="M55.378 1.06L53.682 0c-.406.649-9.746 15.782-10.133 31.53H21.511C21.125 15.782 11.784.649 11.378 0L9.682 1.06c.097.154 9.428 15.267 9.829 30.47H7.53v2h11.981c-.4 15.188-9.732 30.316-9.829 30.47l1.696 1.061c.406-.649 9.746-15.782 10.133-31.53h22.037c.387 15.748 9.728 30.881 10.133 31.53L55.377 64c-.096-.154-9.427-15.267-9.828-30.47H57.53v-2H45.549c.402-15.188 9.732-30.316 9.829-30.47z"></path></svg></g></svg></svg><svg x="43.71428571428571" y="43.71428571428571"><circle cx="15" cy="15" r="15" fill="var(--gaffney-svg-moon-fill-1, #555)"></circle><path d="M 15 0 A 6.5 7.5 0 1 1 15 30 7.5 7.5 0 1 1 15 0" fill="var(--gaffney-svg-moon-fill-2, #ddd)"></path></svg></svg><svg x="257.1428571428571" y="428.57142857142856"><g><text x="42.857142857142854" y="27.428571428571427" font-family="Roboto" font-size="14.285714285714286" text-anchor="middle" alignment-baseline="middle" fill="var(--gaffney-calendar-text, #000)">31</text></g><svg x="12" y="43.71428571428571"><svg width="30" height="30"><g><svg xmlns="http://www.w3.org/2000/svg" viewBox="-10 -10 85 85" fill="var(--gaffney-svg-zodiac, #000)"><path d="M55.378 1.06L53.682 0c-.406.649-9.746 15.782-10.133 31.53H21.511C21.125 15.782 11.784.649 11.378 0L9.682 1.06c.097.154 9.428 15.267 9.829 30.47H7.53v2h11.981c-.4 15.188-9.732 30.316-9.829 30.47l1.696 1.061c.406-.649 9.746-15.782 10.133-31.53h22.037c.387 15.748 9.728 30.881 10.133 31.53L55.377 64c-.096-.154-9.427-15.267-9.828-30.47H57.53v-2H45.549c.402-15.188 9.732-30.316 9.829-30.47z"></path></svg></g></svg></svg><svg x="43.71428571428571" y="43.71428571428571"><circle cx="15" cy="15" r="15" fill="var(--gaffney-svg-moon-fill-1, #555)"></circle><path d="M 15 0 A 7.5 7.5 0 1 0 15 30 7.5 7.5 0 1 0 15 0" fill="var(--gaffney-svg-moon-fill-2, #ddd)"></path></svg></svg><svg x="342.85714285714283" y="428.57142857142856"></svg><svg x="428.57142857142856" y="428.57142857142856"></svg><svg x="514.2857142857142" y="428.57142857142856"></svg><svg x="0" y="514.2857142857142"></svg><svg x="85.71428571428571" y="514.2857142857142"></svg><svg x="171.42857142857142" y="514.2857142857142"></svg><svg x="257.1428571428571" y="514.2857142857142"></svg><svg x="342.85714285714283" y="514.2857142857142"></svg><svg x="428.57142857142856" y="514.2857142857142"></svg><svg x="514.2857142857142" y="514.2857142857142"></svg><svg x="0" y="600"></svg><svg x="85.71428571428571" y="600"></svg><svg x="171.42857142857142" y="600"></svg><svg x="257.1428571428571" y="600"></svg><svg x="342.85714285714283" y="600"></svg><svg x="428.57142857142856" y="600"></svg><svg x="514.2857142857142" y="600"></svg><line x1="" x2="600" y1="85.71428571428571" y2="85.71428571428571" stroke="var(--gaffney-calendar-border-y, #000)"></line><line x1="" x2="600" y1="171.42857142857142" y2="171.42857142857142" stroke="var(--gaffney-calendar-border-y, #000)"></line><line x1="" x2="600" y1="257.1428571428571" y2="257.1428571428571" stroke="var(--gaffney-calendar-border-y, #000)"></line><line x1="" x2="600" y1="342.85714285714283" y2="342.85714285714283" stroke="var(--gaffney-calendar-border-y, #000)"></line><line x1="" x2="600" y1="428.57142857142856" y2="428.57142857142856" stroke="var(--gaffney-calendar-border-y, #000)"></line><line x1="" x2="600" y1="514.2857142857142" y2="514.2857142857142" stroke="var(--gaffney-calendar-border-y, #000)"></line><line x1="85.71428571428571" x2="85.71428571428571" y1="42.857142857142854" y2="600" stroke="var(--gaffney-calendar-border-x, #000)"></line><line x1="171.42857142857142" x2="171.42857142857142" y1="42.857142857142854" y2="600" stroke="var(--gaffney-calendar-border-x, #000)"></line><line x1="257.1428571428571" x2="257.1428571428571" y1="42.857142857142854" y2="600" stroke="var(--gaffney-calendar-border-x, #000)"></line><line x1="342.85714285714283" x2="342.85714285714283" y1="42.857142857142854" y2="600" stroke="var(--gaffney-calendar-border-x, #000)"></line><line x1="428.57142857142856" x2="428.57142857142856" y1="42.857142857142854" y2="600" stroke="var(--gaffney-calendar-border-x, #000)"></line><line x1="514.2857142857142" x2="514.2857142857142" y1="42.857142857142854" y2="600" stroke="var(--gaffney-calendar-border-x, #000)"></line></svg>
